<?xml version="1.0" standalone="no"?>
<!DOCTYPE svg PUBLIC "-//W3C//DTD SVG 20010904//EN"
 "http://www.w3.org/TR/2001/REC-SVG-20010904/DTD/svg10.dtd">
<svg version="1.0" xmlns="http://www.w3.org/2000/svg"
 width="700.000000pt" height="700.000000pt" viewBox="0 0 700.000000 700.000000"
 preserveAspectRatio="xMidYMid meet">
<metadata>
Created by potrace 1.11, written by Peter Selinger 2001-2013
</metadata>
<g transform="translate(0.000000,700.000000) scale(0.100000,-0.100000)"
fill="#000000" stroke="none">
<path d="M880 5873 c-72 -11 -124 -28 -210 -70 -180 -88 -321 -264 -369 -460
-19 -75 -19 -136 -19 -1838 0 -1967 -5 -1829 73 -1990 73 -152 205 -276 356
-337 140 -57 135 -56 534 -57 l310 -1 4 -63 c2 -34 3 -89 4 -122 1 -283 -103
-489 -328 -647 -81 -57 -106 -91 -107 -146 -1 -60 23 -96 82 -127 28 -15 50
-16 140 -11 112 7 115 7 249 32 77 14 218 53 266 74 271 116 421 213 598 388
142 139 258 302 359 505 l59 117 1577 0 c867 1 1600 2 1627 4 223 14 454 174
558 386 82 169 76 7 74 2015 -2 1788 -2 1790 -23 1851 -42 121 -94 205 -184
295 -73 73 -101 94 -180 132 -174 83 81 77 -2830 75 -1427 0 -2606 -2 -2620
-5z m5212 -282 c170 -28 313 -172 339 -343 6 -39 8 -711 7 -1793 -3 -1517 -5
-1734 -19 -1765 -47 -109 -90 -166 -164 -214 -64 -43 -111 -61 -180 -70 -27
-3 -783 -6 -1678 -6 -1737 0 -1655 2 -1699 -46 -9 -11 -39 -73 -68 -139 -136
-318 -309 -537 -558 -704 -77 -52 -248 -134 -328 -157 -33 -9 -65 -19 -72 -22
-8 -3 8 31 35 74 62 99 99 193 119 299 4 22 9 47 11 55 9 34 11 299 2 355 -4
33 -11 84 -15 114 -9 74 -28 115 -66 143 l-33 23 -420 5 c-382 5 -424 7 -465
24 -145 61 -243 174 -270 312 -6 31 -8 696 -7 1794 2 1535 4 1749 18 1780 64
149 153 233 284 271 56 16 223 18 2615 18 1535 1 2578 -3 2612 -8z"/>
<path d="M2012 3910 c-112 -24 -235 -119 -286 -223 -33 -68 -45 -134 -41 -217
8 -168 135 -325 299 -372 226 -64 468 76 520 301 34 145 -5 288 -105 390 -51
52 -119 94 -177 111 -54 15 -161 20 -210 10z m175 -302 c34 -31 43 -51 49
-101 6 -51 -19 -97 -68 -127 -41 -25 -82 -25 -127 -2 -101 51 -106 182 -9 242
44 27 119 21 155 -12z"/>
<path d="M3420 3909 c-211 -46 -356 -236 -335 -439 12 -117 44 -186 120 -263
151 -154 388 -166 562 -28 62 48 121 148 139 231 31 149 -8 280 -115 387 -51
51 -76 66 -161 100 -41 16 -160 23 -210 12z m155 -293 c85 -55 82 -176 -5
-234 -29 -20 -43 -23 -84 -18 -72 8 -120 60 -124 134 -4 53 44 122 93 135 33
9 94 0 120 -17z"/>
<path d="M4800 3905 c-135 -33 -250 -138 -297 -272 -22 -65 -24 -184 -3 -253
50 -165 197 -283 370 -296 265 -20 484 218 441 479 -26 158 -127 277 -281 334
-52 19 -167 23 -230 8z m162 -282 c42 -18 78 -78 78 -129 0 -61 -72 -134 -133
-134 -39 0 -88 23 -117 54 -20 23 -25 37 -25 86 0 49 5 63 25 86 48 51 108 64
172 37z"/>
</g>
</svg>
